# xmcd CD database file
#
# Track frame offsets:
#	150
#	20930
#	40920
#	55447
#
# Disc length: 1013 seconds
#
# Revision: 1
# Processed by: cddbd v1.5.1PL0 Copyright (c) Steve Scherf et al.
# Submitted via: CDex 1.51
#
DISCID=3503f304
DTITLE=melody - Next to You
DYEAR=2005
DGENRE=J-POP
TTITLE0=Next to You
TTITLE1=Summer Memory
TTITLE2=So into You (only one remix)
TTITLE3=Next to You (instrumental)
EXTD=YEAR: 2005
EXTT0=
EXTT1=
EXTT2=
EXTT3=
PLAYORDER=
